<svg width="32" height="30" viewBox="0 0 32 30" fill="none" xmlns="http://www.w3.org/2000/svg">
<path d="M8.00002 10C8.00002 9.30964 8.59697 8.75 9.33335 8.75H22.6667C23.4031 8.75 24 9.30964 24 10C24 10.6904 23.4031 11.25 22.6667 11.25H9.33335C8.59697 11.25 8.00002 10.6904 8.00002 10Z" fill="#FDF6EC"/>
<path d="M9.33335 13.75C8.59697 13.75 8.00002 14.3096 8.00002 15C8.00002 15.6904 8.59697 16.25 9.33335 16.25H14.6667C15.4031 16.25 16 15.6904 16 15C16 14.3096 15.4031 13.75 14.6667 13.75H9.33335Z" fill="#FDF6EC"/>
<path fill-rule="evenodd" clip-rule="evenodd" d="M24 21.25H26.6667C28.1394 21.25 29.3334 20.1307 29.3334 18.75V6.25C29.3334 4.86929 28.1394 3.75 26.6667 3.75H5.33335C3.86059 3.75 2.66669 4.86929 2.66669 6.25V18.75C2.66669 20.1307 3.86059 21.25 5.33335 21.25H16V23.75C16 26.1525 19.2624 27.172 20.8 25.25L24 21.25ZM18.6667 18.75V23.75L22.6667 18.75H26.6667V6.25H5.33335V18.75H18.6667Z" fill="#FDF6EC"/>
</svg>
