<svg width="24" height="24" viewBox="0 0 24 24" fill="none" xmlns="http://www.w3.org/2000/svg">
<path opacity="0.4" d="M16.1462 2H7.78838C4.7568 2 2.9917 3.78 2.9917 6.83V17.16C2.9917 20.26 4.7568 22 7.78838 22H16.1462C19.2266 22 20.9418 20.26 20.9418 17.16V6.83C20.9418 3.78 19.2266 2 16.1462 2" fill="#796653"/>
<path fill-rule="evenodd" clip-rule="evenodd" d="M8.05765 6.65002V6.66002C7.62785 6.66002 7.27981 7.01002 7.27981 7.44002C7.27981 7.87002 7.62785 8.22002 8.05765 8.22002H11.0384C11.4682 8.22002 11.8172 7.87002 11.8172 7.42902C11.8172 7.00002 11.4682 6.65002 11.0384 6.65002H8.05765ZM15.8759 12.74H8.05765C7.62785 12.74 7.27981 12.39 7.27981 11.96C7.27981 11.53 7.62785 11.179 8.05765 11.179H15.8759C16.3047 11.179 16.6538 11.53 16.6538 11.96C16.6538 12.39 16.3047 12.74 15.8759 12.74ZM15.8759 17.31H8.05765C7.75848 17.35 7.46929 17.2 7.30973 16.95C7.15017 16.69 7.15017 16.36 7.30973 16.11C7.46929 15.85 7.75848 15.71 8.05765 15.74H15.8759C16.2738 15.78 16.574 16.12 16.574 16.53C16.574 16.929 16.2738 17.27 15.8759 17.31Z" fill="#796653"/>
</svg>
