<svg width="24" height="24" viewBox="0 0 24 24" fill="none" xmlns="http://www.w3.org/2000/svg">
<path d="M9.11841 20.7821V17.7152C9.11839 16.9381 9.74859 16.3067 10.5292 16.3018H13.3954C14.1795 16.3018 14.8151 16.9346 14.8151 17.7152V20.7732C14.8151 21.4473 15.3614 21.9951 16.0384 22H17.9938C18.9071 22.0023 19.7838 21.6428 20.4304 21.0007C21.077 20.3586 21.4404 19.4868 21.4404 18.5775V9.86585C21.4404 9.13139 21.1134 8.43471 20.5475 7.9635L13.9044 2.67427C12.7431 1.74912 11.0846 1.77901 9.95773 2.74538L3.45741 7.9635C2.86478 8.42082 2.51058 9.11956 2.49308 9.86585V18.5686C2.49308 20.4637 4.03617 22 5.93968 22H7.85048C8.17646 22.0023 8.48991 21.8751 8.72125 21.6464C8.95259 21.4178 9.0827 21.1067 9.08269 20.7821H9.11841Z" fill="#796653"/>
</svg>
