<svg width="24" height="24" viewBox="0 0 24 24" fill="none" xmlns="http://www.w3.org/2000/svg">
<rect width="24" height="24" fill="#DAB88B"/>
<path opacity="0.4" d="M2.00018 11.0786C2.05018 13.4166 2.19018 17.4156 2.21018 17.8566C2.28118 18.7996 2.64218 19.7526 3.20418 20.4246C3.98618 21.3676 4.94918 21.7886 6.29218 21.7886C8.14818 21.7986 10.1942 21.7986 12.1812 21.7986C14.1762 21.7986 16.1122 21.7986 17.7472 21.7886C19.0712 21.7886 20.0642 21.3566 20.8362 20.4246C21.3982 19.7526 21.7592 18.7896 21.8102 17.8566C21.8302 17.4856 21.9302 13.1446 21.9902 11.0786H2.00018Z" fill="#796653"/>
<path d="M11.2454 15.3843V16.6783C11.2454 17.0923 11.5814 17.4283 11.9954 17.4283C12.4094 17.4283 12.7454 17.0923 12.7454 16.6783V15.3843C12.7454 14.9703 12.4094 14.6343 11.9954 14.6343C11.5814 14.6343 11.2454 14.9703 11.2454 15.3843Z" fill="#383838"/>
<path fill-rule="evenodd" clip-rule="evenodd" d="M10.2113 14.5565C10.1113 14.9195 9.7623 15.1515 9.38431 15.1015C6.8333 14.7455 4.39531 13.8405 2.33731 12.4815C2.12631 12.3435 2.00031 12.1075 2.00031 11.8555V8.38949C2.00031 6.28949 3.71231 4.58149 5.81731 4.58149H7.78431C7.97231 3.12949 9.20231 2.00049 10.7043 2.00049H13.2863C14.7873 2.00049 16.0183 3.12949 16.2063 4.58149H18.1833C20.2823 4.58149 21.9903 6.28949 21.9903 8.38949V11.8555C21.9903 12.1075 21.8633 12.3425 21.6543 12.4815C19.5923 13.8465 17.1443 14.7555 14.5763 15.1105C14.5413 15.1155 14.5073 15.1175 14.4733 15.1175C14.1343 15.1175 13.8313 14.8885 13.7463 14.5525C13.5443 13.7565 12.8213 13.1995 11.9903 13.1995C11.1483 13.1995 10.4333 13.7445 10.2113 14.5565ZM13.2863 3.50049H10.7043C10.0313 3.50049 9.46931 3.96049 9.30131 4.58149H14.6883C14.5203 3.96049 13.9583 3.50049 13.2863 3.50049Z" fill="#796653"/>
</svg>
