<svg width="19" height="19" viewBox="0 0 19 19" fill="none" xmlns="http://www.w3.org/2000/svg">
<path fill-rule="evenodd" clip-rule="evenodd" d="M8.70831 1.58337C12.6433 1.58337 15.8333 4.77335 15.8333 8.70837C15.8333 10.3905 15.2504 11.9365 14.2756 13.1553L17.1848 16.0652C17.4939 16.3744 17.4939 16.8757 17.1848 17.1848C16.8994 17.4702 16.4503 17.4922 16.1398 17.2507L16.0652 17.1848L13.1552 14.2756C11.9364 15.2505 10.3904 15.8334 8.70831 15.8334C4.77328 15.8334 1.58331 12.6434 1.58331 8.70837C1.58331 4.77335 4.77328 1.58337 8.70831 1.58337ZM8.70831 3.16671C5.64773 3.16671 3.16665 5.6478 3.16665 8.70837C3.16665 11.769 5.64773 14.25 8.70831 14.25C11.7689 14.25 14.25 11.769 14.25 8.70837C14.25 5.6478 11.7689 3.16671 8.70831 3.16671Z" fill="#644B35"/>
</svg>
