<svg width="20" height="17" viewBox="0 0 20 17" fill="none" xmlns="http://www.w3.org/2000/svg">
<path fill-rule="evenodd" clip-rule="evenodd" d="M9.87497 2.125C10.1144 2.125 10.3441 2.20896 10.5134 2.3584C10.6827 2.50784 10.7779 2.71053 10.7779 2.92188V7.4375H15.8943C16.1337 7.4375 16.3634 7.52146 16.5327 7.6709C16.7021 7.82034 16.7972 8.02303 16.7972 8.23438C16.7972 8.44572 16.7021 8.64841 16.5327 8.79785C16.3634 8.94729 16.1337 9.03125 15.8943 9.03125H10.7779V13.5469C10.7779 13.7582 10.6827 13.9609 10.5134 14.1103C10.3441 14.2598 10.1144 14.3438 9.87497 14.3438C9.63551 14.3438 9.40585 14.2598 9.23653 14.1103C9.0672 13.9609 8.97207 13.7582 8.97207 13.5469V9.03125H3.85566C3.6162 9.03125 3.38653 8.94729 3.21721 8.79785C3.04789 8.64841 2.95276 8.44572 2.95276 8.23438C2.95276 8.02303 3.04789 7.82034 3.21721 7.6709C3.38653 7.52146 3.6162 7.4375 3.85566 7.4375H8.97207V2.92188C8.97207 2.71053 9.0672 2.50784 9.23653 2.3584C9.40585 2.20896 9.63551 2.125 9.87497 2.125Z" fill="white"/>
</svg>
