<svg width="24" height="24" viewBox="0 0 24 24" fill="none" xmlns="http://www.w3.org/2000/svg">
<path d="M6 8C6 7.44772 6.44772 7 7 7H17C17.5523 7 18 7.44772 18 8C18 8.55228 17.5523 9 17 9H7C6.44772 9 6 8.55228 6 8Z" fill="#402D1B"/>
<path d="M7 11C6.44772 11 6 11.4477 6 12C6 12.5523 6.44772 13 7 13H11C11.5523 13 12 12.5523 12 12C12 11.4477 11.5523 11 11 11H7Z" fill="#402D1B"/>
<path fill-rule="evenodd" clip-rule="evenodd" d="M18 17H20C21.1046 17 22 16.1046 22 15V5C22 3.89543 21.1046 3 20 3H4C2.89543 3 2 3.89543 2 5V15C2 16.1046 2.89543 17 4 17H12V19C12 20.922 14.4468 21.7376 15.6 20.2L18 17ZM14 15V19L17 15H20V5H4V15H14Z" fill="#402D1B"/>
</svg>
