<svg width="24" height="24" viewBox="0 0 24 24" fill="none" xmlns="http://www.w3.org/2000/svg">
<path opacity="0.4" d="M16.1461 2H7.78836C4.75678 2 2.99168 3.78 2.99168 6.83V17.16C2.99168 20.26 4.75678 22 7.78836 22H16.1461C19.2266 22 20.9418 20.26 20.9418 17.16V6.83C20.9418 3.78 19.2266 2 16.1461 2Z" fill="#402D1B"/>
<path fill-rule="evenodd" clip-rule="evenodd" d="M8.05761 6.65002V6.66002C7.6278 6.66002 7.27977 7.01002 7.27977 7.44002C7.27977 7.87002 7.6278 8.22002 8.05761 8.22002H11.0383C11.4681 8.22002 11.8172 7.87002 11.8172 7.42902C11.8172 7.00002 11.4681 6.65002 11.0383 6.65002H8.05761ZM15.8759 12.74H8.05761C7.6278 12.74 7.27977 12.39 7.27977 11.96C7.27977 11.53 7.6278 11.179 8.05761 11.179H15.8759C16.3047 11.179 16.6537 11.53 16.6537 11.96C16.6537 12.39 16.3047 12.74 15.8759 12.74ZM15.8759 17.31H8.05761C7.75844 17.35 7.46924 17.2 7.30969 16.95C7.15013 16.69 7.15013 16.36 7.30969 16.11C7.46924 15.85 7.75844 15.71 8.05761 15.74H15.8759C16.2738 15.78 16.574 16.12 16.574 16.53C16.574 16.929 16.2738 17.27 15.8759 17.31Z" fill="#291F14"/>
</svg>
