<svg width="24" height="24" viewBox="0 0 24 24" fill="none" xmlns="http://www.w3.org/2000/svg">
<path d="M9.11843 20.7821V17.7152C9.11842 16.9381 9.74862 16.3067 10.5292 16.3018H13.3954C14.1795 16.3018 14.8151 16.9346 14.8151 17.7152V20.7732C14.8151 21.4473 15.3614 21.9951 16.0384 22H17.9939C18.9071 22.0023 19.7838 21.6428 20.4304 21.0007C21.0771 20.3586 21.4405 19.4868 21.4405 18.5775V9.86585C21.4404 9.13139 21.1134 8.43471 20.5476 7.9635L13.9044 2.67427C12.7431 1.74912 11.0846 1.77901 9.95776 2.74538L3.45744 7.9635C2.86481 8.42082 2.51061 9.11956 2.4931 9.86585V18.5686C2.4931 20.4637 4.0362 22 5.9397 22H7.85051C8.17649 22.0023 8.48993 21.8751 8.72128 21.6464C8.95262 21.4178 9.08272 21.1067 9.08272 20.7821H9.11843Z" fill="#402D1B"/>
</svg>
