<svg width="29" height="29" viewBox="0 0 29 29" fill="none" xmlns="http://www.w3.org/2000/svg">
<path d="M14.4998 12.0834C15.1672 12.0834 15.7082 12.6244 15.7082 13.2917V20.5417C15.7082 21.2091 15.1672 21.7501 14.4998 21.7501C13.8325 21.7501 13.2915 21.2091 13.2915 20.5417V13.2917C13.2915 12.6244 13.8325 12.0834 14.4998 12.0834Z" fill="#95826F"/>
<path d="M14.4998 9.66675C15.1672 9.66675 15.7082 9.12576 15.7082 8.45842C15.7082 7.79107 15.1672 7.25008 14.4998 7.25008C13.8325 7.25008 13.2915 7.79107 13.2915 8.45842C13.2915 9.12576 13.8325 9.66675 14.4998 9.66675Z" fill="#95826F"/>
<path fill-rule="evenodd" clip-rule="evenodd" d="M14.4998 26.5834C21.1733 26.5834 26.5832 21.1735 26.5832 14.5001C26.5832 7.82664 21.1733 2.41675 14.4998 2.41675C7.8264 2.41675 2.4165 7.82664 2.4165 14.5001C2.4165 21.1735 7.8264 26.5834 14.4998 26.5834ZM14.4998 24.1667C19.8386 24.1667 24.1665 19.8388 24.1665 14.5001C24.1665 9.16133 19.8386 4.83341 14.4998 4.83341C9.16108 4.83341 4.83317 9.16133 4.83317 14.5001C4.83317 19.8388 9.16108 24.1667 14.4998 24.1667Z" fill="#95826F"/>
</svg>
